<svg width="144" height="141" viewBox="0 0 144 141" fill="none" xmlns="http://www.w3.org/2000/svg">
<path fill-rule="evenodd" clip-rule="evenodd" d="M73.2296 41.3672C72.645 40.5598 71.445 40.5635 70.8656 41.375L60.8569 55.3937L12.8541 122.629L1.44455 138.609C0.75302 139.578 1.44234 140.926 2.62908 140.926H22.2096H72.0424H122.751H142.413C143.604 140.926 144.292 139.569 143.592 138.602L132.033 122.629L83.3276 55.3213L73.2296 41.3672ZM73.329 72.6287C72.7447 71.8213 71.5444 71.8254 70.9654 72.6365L36.9272 120.312C36.2356 121.28 36.9248 122.629 38.1116 122.629H72.0424H106.65C107.841 122.629 108.529 121.272 107.829 120.305L73.329 72.6287Z" fill="#605DFF"/>
</svg>
