<svg width="21" height="22" viewBox="0 0 21 22" fill="none" xmlns="http://www.w3.org/2000/svg">
<path d="M7.4901 3.19313L7.49018 3.19323L7.49875 3.18576L9.06523 1.81882C9.58052 1.38731 10.4337 1.39098 10.9344 1.8185C10.9346 1.81868 10.9349 1.81886 10.9351 1.81904L12.5125 3.17687C12.5128 3.17708 12.513 3.17729 12.5133 3.1775C12.7224 3.35855 12.998 3.50207 13.2621 3.60021C13.5264 3.69843 13.8273 3.76902 14.1 3.76902H15.8C16.5839 3.76902 17.23 4.41516 17.23 5.19902V6.89902C17.23 7.17604 17.3003 7.4769 17.3991 7.74152C17.4979 8.00581 17.6416 8.27788 17.8216 8.48578C17.8218 8.48602 17.822 8.48625 17.8222 8.48649L19.18 10.064C19.1802 10.0642 19.1804 10.0644 19.1806 10.0646C19.6096 10.5672 19.6105 11.4314 19.189 11.9353L17.8322 13.5116C17.8319 13.5118 17.8317 13.5121 17.8314 13.5124C17.6504 13.7216 17.5069 13.9971 17.4088 14.2611C17.3106 14.5255 17.24 14.8263 17.24 15.099V16.799C17.24 17.5829 16.5939 18.229 15.81 18.229H14.11C13.833 18.229 13.5321 18.2993 13.2675 18.3981C13.0033 18.4969 12.7313 18.6405 12.5234 18.8204C12.5231 18.8207 12.5228 18.8209 12.5225 18.8212L10.9478 20.1767C10.9472 20.1772 10.9466 20.1777 10.946 20.1782C10.4308 20.6107 9.5767 20.6074 9.07561 20.1796C9.07539 20.1794 9.07517 20.1792 9.07495 20.179L7.49747 18.8212C7.49721 18.8209 7.49694 18.8207 7.49668 18.8205C7.28753 18.6395 7.01198 18.496 6.74791 18.3978C6.48357 18.2996 6.1827 18.229 5.91 18.229H4.18C3.39615 18.229 2.75 17.5829 2.75 16.799V15.089C2.75 14.816 2.67925 14.5176 2.58266 14.2567C2.48582 13.9951 2.34601 13.7252 2.17412 13.5189L2.17413 13.5189L2.17115 13.5154L0.822748 11.9273C0.822504 11.927 0.82226 11.9267 0.822017 11.9264C0.399331 11.4226 0.399334 10.5754 0.822027 10.0716C0.822267 10.0713 0.822507 10.071 0.822748 10.0707L2.17115 8.48264L2.17117 8.48265L2.17412 8.47911C2.34601 8.27285 2.48582 8.00297 2.58266 7.74134C2.67925 7.48041 2.75 7.18205 2.75 6.90902V5.19902C2.75 4.41516 3.39615 3.76902 4.18 3.76902H5.91C6.18247 3.76902 6.48283 3.69852 6.74566 3.60229C7.00885 3.50593 7.28244 3.36618 7.4901 3.19313ZM9.68334 14.2928L9.68356 14.2926L14.5136 9.46257C14.9988 8.97731 14.9988 8.18073 14.5136 7.69547C14.0283 7.21021 13.2317 7.21021 12.7465 7.69547L8.8 11.6419L7.26356 10.1055C6.7783 9.6202 5.98171 9.6202 5.49645 10.1055L5.49437 10.1076C5.2624 10.3423 5.1323 10.659 5.1323 10.989C5.1323 11.319 5.2624 11.6357 5.49437 11.8705L5.49436 11.8705L5.49645 11.8726L7.91645 14.2926L7.91667 14.2928C8.15105 14.5269 8.46875 14.6584 8.8 14.6584C9.13126 14.6584 9.44896 14.5269 9.68334 14.2928Z" fill="#44CC52" stroke="#44CC52"/>
</svg>