<svg width="72" height="72" viewBox="0 0 72 72" fill="none" xmlns="http://www.w3.org/2000/svg">
<rect x="0.5" y="0.5" width="71" height="71" rx="35.5" fill="#F7FAFF"/>
<path opacity="0.4" d="M49.9334 37.22C49.3167 37.22 48.8 36.7534 48.7334 36.1367C48.5365 34.3265 47.9523 32.5798 47.0205 31.0154C46.0888 29.451 44.8313 28.1054 43.3334 27.07C43.2027 26.9795 43.0912 26.8641 43.0054 26.7304C42.9195 26.5966 42.861 26.4472 42.8331 26.2908C42.8052 26.1343 42.8085 25.9739 42.8429 25.8187C42.8773 25.6636 42.942 25.5167 43.0334 25.3867C43.4167 24.8367 44.1667 24.7034 44.7167 25.0867C46.4977 26.3235 47.9932 27.9272 49.1029 29.79C50.2125 31.6529 50.9106 33.7317 51.15 35.8867C51.2167 36.5534 50.7334 37.1534 50.0667 37.22H49.9334ZM22.2334 37.3017H22.1167C21.7964 37.2681 21.5026 37.1088 21.2995 36.8589C21.0964 36.609 21.0007 36.2887 21.0334 35.9684C21.2554 33.8177 21.9355 31.7395 23.0279 29.8737C24.1204 28.0079 25.5998 26.3978 27.3667 25.1517C27.9 24.7684 28.6667 24.9017 29.05 25.435C29.4334 25.985 29.3 26.735 28.7667 27.1184C27.2836 28.1653 26.0419 29.5176 25.1248 31.0843C24.2078 32.6511 23.6367 34.3959 23.45 36.2017C23.3834 36.835 22.85 37.3017 22.2334 37.3017ZM42.65 51.1667C40.6 52.15 38.4 52.65 36.1 52.65C33.7 52.65 31.4167 52.1167 29.2834 51.0334C29.1411 50.9635 29.0141 50.8659 28.91 50.7463C28.8059 50.6268 28.7267 50.4876 28.677 50.3371C28.6274 50.1865 28.6082 50.0276 28.6208 49.8695C28.6333 49.7115 28.6773 49.5575 28.75 49.4167C29.0334 48.8167 29.7667 48.5834 30.3667 48.8667C31.4167 49.4 32.5334 49.7667 33.6667 49.9834C35.2 50.2834 36.7667 50.3 38.3 50.0334C39.4334 49.8334 40.55 49.4834 41.5834 48.9834C42.2 48.7 42.9334 48.9334 43.2 49.55C43.5 50.15 43.2667 50.8834 42.65 51.1667Z" fill="#605DFF"/>
<path d="M36.0833 19.3533C33.5 19.3533 31.3833 21.4533 31.3833 24.0533C31.3833 26.6533 33.4833 28.7533 36.0833 28.7533C38.6833 28.7533 40.7833 26.6533 40.7833 24.0533C40.7833 21.4533 38.6833 19.3533 36.0833 19.3533ZM24.4167 39.1183C21.8333 39.1183 19.7167 41.2183 19.7167 43.8183C19.7167 46.4183 21.8167 48.5183 24.4167 48.5183C27.0167 48.5183 29.1167 46.4183 29.1167 43.8183C29.1167 41.2183 27 39.1183 24.4167 39.1183ZM47.5833 39.1183C45 39.1183 42.8833 41.2183 42.8833 43.8183C42.8833 46.4183 44.9833 48.5183 47.5833 48.5183C50.1833 48.5183 52.2833 46.4183 52.2833 43.8183C52.2833 41.2183 50.1833 39.1183 47.5833 39.1183Z" fill="#605DFF"/>
<rect x="0.5" y="0.5" width="71" height="71" rx="35.5" stroke="#A4A1FF"/>
</svg>
