<svg width="73" height="72" viewBox="0 0 73 72" fill="none" xmlns="http://www.w3.org/2000/svg">
<rect x="1.16675" y="0.5" width="71" height="71" rx="35.5" fill="#F7FAFF"/>
<path opacity="0.4" d="M50.4998 27.6666V41H26.9165C24.2998 41 22.1665 43.1333 22.1665 45.75V27.6666C22.1665 21 23.8332 19.3333 30.4998 19.3333H42.1665C48.8332 19.3333 50.4998 21 50.4998 27.6666Z" fill="#4A516D"/>
<path d="M50.4998 41V46.8333C50.4998 50.05 47.8832 52.6667 44.6665 52.6667H27.9998C24.7832 52.6667 22.1665 50.05 22.1665 46.8333V45.75C22.1665 43.1333 24.2998 41 26.9165 41H50.4998Z" fill="#4A516D"/>
<path d="M42.9998 28.9167H29.6665C28.9832 28.9167 28.4165 28.35 28.4165 27.6667C28.4165 26.9834 28.9832 26.4167 29.6665 26.4167H42.9998C43.6832 26.4167 44.2498 26.9834 44.2498 27.6667C44.2498 28.35 43.6832 28.9167 42.9998 28.9167Z" fill="#4A516D"/>
<path d="M37.9998 34.75H29.6665C28.9832 34.75 28.4165 34.1833 28.4165 33.5C28.4165 32.8167 28.9832 32.25 29.6665 32.25H37.9998C38.6832 32.25 39.2498 32.8167 39.2498 33.5C39.2498 34.1833 38.6832 34.75 37.9998 34.75Z" fill="#4A516D"/>
<rect x="1.16675" y="0.5" width="71" height="71" rx="35.5" stroke="#A1CCFF"/>
</svg>
