<svg width="24" height="24" viewBox="0 0 24 24" fill="none" stroke="#303651" xmlns="http://www.w3.org/2000/svg">
<path d="M4.11091 16.3498L7.64645 19.8853C9.79433 22.0332 13.2767 22.0332 15.4246 19.8853L19.9932 15.3167C20.9228 14.3872 21.4488 13.129 21.4576 11.8145L21.4861 7.54336C21.5047 4.75592 19.2403 2.49153 16.4528 2.51012L12.1817 2.53861C10.8672 2.54738 9.60904 3.07345 8.67953 4.00297L4.11091 8.57159C1.96303 10.7195 1.96303 14.2019 4.11091 16.3498Z" stroke="#173353" stroke-width="2"/>
<path d="M15.863 8.1332C14.6914 6.96162 12.792 6.96162 11.6204 8.1332C10.4488 9.30477 10.4488 11.2043 11.6204 12.3758C12.792 13.5474 14.6914 13.5474 15.863 12.3758C17.0346 11.2043 17.0346 9.30477 15.863 8.1332Z" stroke="#173353" stroke-width="2" stroke-linecap="round"/>
</svg>
