<svg width="73" height="72" viewBox="0 0 73 72" fill="none" xmlns="http://www.w3.org/2000/svg">
<rect x="0.833374" y="0.5" width="71" height="71" rx="35.5" fill="#F7FAFF"/>
<g clip-path="url(#clip0_86_10232)">
<path opacity="0.4" d="M18.75 36C18.75 31.3391 18.75 29.0086 19.5434 27.182C20.5109 24.9546 22.2879 23.1776 24.5153 22.2101C26.3419 21.4167 28.6724 21.4167 33.3333 21.4167C37.9943 21.4167 40.3248 21.4167 42.1513 22.2101C44.3787 23.1776 46.1558 24.9546 47.1233 27.182C47.9167 29.0086 47.9167 31.3391 47.9167 36C47.9167 40.661 47.9167 42.9915 47.1233 44.818C46.1558 47.0454 44.3787 48.8225 42.1513 49.79C40.3248 50.5834 37.9943 50.5834 33.3333 50.5834C28.6724 50.5834 26.3419 50.5834 24.5153 49.79C22.2879 48.8225 20.5109 47.0454 19.5434 44.818C18.75 42.9915 18.75 40.661 18.75 36Z" fill="#4A516D"/>
<path d="M25.8333 32.6667C25.8333 34.9679 27.6987 36.8333 29.9999 36.8333C32.3011 36.8333 34.1666 34.9679 34.1666 32.6667C34.1666 30.3655 32.3011 28.5 29.9999 28.5C27.6987 28.5 25.8333 30.3655 25.8333 32.6667Z" fill="#4A516D"/>
<path d="M50 42.6667C52.4854 42.8492 54.5834 41.0287 54.5834 38.3018V33.6975C54.5834 30.9707 52.4854 29.1503 50.0001 29.3329C50.0001 30.9996 50 32.8658 50 35.9997C50 39.1335 50 41 50 42.6667Z" fill="#4A516D"/>
</g>
<rect x="0.833374" y="0.5" width="71" height="71" rx="35.5" stroke="#A1CCFF"/>
<defs>
<clipPath id="clip0_86_10232">
<rect x="16.6666" y="16" width="40" height="40" rx="20" fill="white"/>
</clipPath>
</defs>
</svg>
