<svg xmlns="http://www.w3.org/2000/svg" width="120" height="100" viewBox="0 0 100 100" fill="none"><link xmlns="" type="text/css" rel="stylesheet" id="dark-mode-custom-link"/><link xmlns="" type="text/css" rel="stylesheet" id="dark-mode-general-link"/><style xmlns="" lang="en" type="text/css" id="dark-mode-custom-style"/><style xmlns="" lang="en" type="text/css" id="dark-mode-native-style"/><style xmlns="" lang="en" type="text/css" id="dark-mode-native-sheet"/>

<path d="M61.097 0.330724L99.726 54.2026C100.12 54.7528 100.333 55.416 100.333 56.0966V63.2435C100.333 64.0219 99.3522 64.3459 98.9014 63.7163L61.0964 10.9513C60.7787 10.5076 60.1265 10.5104 59.8128 10.9567L22.6974 63.6754C22.2495 64.3119 21.2617 63.9902 21.2617 63.2078V56.1275C21.2617 55.4564 21.4684 54.8022 21.8526 54.2564L59.8128 0.336405C60.1271 -0.109735 60.7787 -0.11262 61.097 0.330724Z" fill="#F8F8FF"/>
<path fill-rule="evenodd" clip-rule="evenodd" d="M61.4755 23.9003C61.1369 23.4348 60.4425 23.4369 60.1074 23.9048L54.3151 31.9876L26.5357 70.754L19.9329 79.9671C19.5327 80.5264 19.9316 81.3036 20.6185 81.3036H31.9498H60.788H90.1334H101.512C102.201 81.3036 102.599 80.5212 102.194 79.9636L95.505 70.754L67.3192 31.9459L61.4755 23.9003ZM61.5328 41.9249C61.1948 41.4594 60.4998 41.4618 60.1647 41.9294L40.4669 69.4181C40.0667 69.9762 40.4655 70.754 41.1523 70.754H60.788H80.8157C81.505 70.754 81.9031 69.9716 81.498 69.4134L61.5328 41.9249Z" fill="#F8F8FF"/>
</svg>