<svg width="126" height="37" viewBox="0 0 126 37" fill="none" xmlns="http://www.w3.org/2000/svg">
<path fill-rule="evenodd" clip-rule="evenodd" d="M22.9568 8C20.9123 8 19.2549 9.74922 19.2549 11.907C19.2549 14.0647 20.9123 15.8139 22.9568 15.8139C25.0015 15.8139 26.6588 14.0647 26.6588 11.907C26.6588 9.74922 25.0015 8 22.9568 8ZM15.7187 15.6007C19.5722 15.6007 22.6961 18.8976 22.6961 22.9645V29H19.2255V22.9645C19.2255 22.5313 19.1551 22.1157 19.0255 21.7294L13.9277 27.1095L11.4736 24.5195L16.3898 19.3312C16.1725 19.2868 15.9482 19.2635 15.7187 19.2635H10V15.6007H15.7187ZM30.2814 15.6007C26.4279 15.6007 23.3039 18.8976 23.3039 22.9645V29H26.7745V22.9645C26.7745 22.6253 26.8178 22.2966 26.8987 21.9846L32.2314 27.6125L34.6856 25.0225L29.3529 19.3946C29.6486 19.3091 29.96 19.2635 30.2814 19.2635H36V15.6007H30.2814Z" fill="url(#paint0_linear_3932_27733)"/>
<path d="M41 29V13H45.4091L50.1364 26.7109H50.4773V13H53V29H48.6819L43.8409 15.2657H43.5227V29H41Z" fill="#0C284F"/>
<path d="M63.0093 26.6781L63.5994 26.6092L63.6416 28.4713C62.0397 28.8237 60.6205 29 59.384 29C57.8243 29 56.7002 28.5324 56.0118 27.5977C55.3373 26.6627 55 25.1685 55 23.1149C55 19.0383 56.5245 17 59.5738 17C62.5245 17 64 18.7548 64 22.2644L63.8525 24.0573H57.3184C57.3325 25.0076 57.5222 25.705 57.8876 26.1493C58.2529 26.5939 58.9344 26.816 59.9321 26.816C60.9297 26.816 61.9555 26.7701 63.0093 26.6781ZM61.7447 22.1265C61.7447 20.9923 61.5761 20.203 61.2388 19.7586C60.9158 19.2988 60.3606 19.0689 59.5738 19.0689C58.7869 19.0689 58.2108 19.3065 57.8454 19.7816C57.4941 20.2567 57.3114 21.0383 57.2975 22.1265H61.7447Z" fill="#0C284F"/>
<path d="M71.9109 19.442H68.8344V24.4725C68.8344 25.4024 68.9013 26.0197 69.0351 26.3246C69.1688 26.6294 69.5106 26.782 70.0606 26.782L71.8886 26.7134L72 28.7026C71.0043 28.9008 70.2464 29 69.7262 29C68.463 29 67.5935 28.7026 67.118 28.1082C66.6571 27.5136 66.4269 26.3933 66.4269 24.747V19.442H65V17.3155H66.4269V14H68.8344V17.3155H71.9109V19.442Z" fill="#0C284F"/>
<path d="M72 17H74.3978L76.1681 26.7681H76.6162L78.7452 17.24H81.255L83.3838 26.7681H83.8319L85.5799 17H88L85.6246 29H81.748L80 20.768L78.2522 29H74.3754L72 17Z" fill="#0C284F"/>
<path d="M90.1435 18.4942C90.9207 17.4981 92.2061 17 94 17C95.7937 17 97.0716 17.4981 97.8341 18.4942C98.6113 19.4904 99 20.9846 99 22.977C99 24.9693 98.6263 26.4711 97.8788 27.4826C97.1315 28.4943 95.8386 29 94 29C92.1614 29 90.8683 28.4943 90.121 27.4826C89.3736 26.4711 89 24.9693 89 22.977C89 20.9846 89.381 19.4904 90.1435 18.4942ZM91.982 25.9654C92.3259 26.5785 92.9985 26.885 94 26.885C95.0015 26.885 95.6742 26.5785 96.018 25.9654C96.3618 25.3525 96.5337 24.3487 96.5337 22.954C96.5337 21.5594 96.3468 20.5708 95.9731 19.9885C95.6143 19.4061 94.9566 19.1149 94 19.1149C93.0432 19.1149 92.378 19.4061 92.0045 19.9885C91.6457 20.5708 91.4663 21.5594 91.4663 22.954C91.4663 24.3487 91.6382 25.3525 91.982 25.9654Z" fill="#0C284F"/>
<path d="M100 29V17.2583H102.719V18.6673C104.146 17.8063 105.573 17.2505 107 17V19.5597C105.556 19.8258 104.323 20.1703 103.299 20.593L102.745 20.8043V29H100Z" fill="#0C284F"/>
<path d="M109.601 29H107V12H109.601V21.8206L111.081 21.6766L113.897 16.9944H116.809L113.372 22.6131L117 29H114.064L111.153 23.9336L109.601 24.1016V29Z" fill="#0C284F"/>
<defs>
<linearGradient id="paint0_linear_3932_27733" x1="14.6817" y1="18.5" x2="32.865" y2="18.5" gradientUnits="userSpaceOnUse">
<stop stop-color="#2895FB"/>
<stop offset="1" stop-color="#2856FB"/>
</linearGradient>
</defs>
</svg>
