<svg width="32" height="32" viewBox="0 0 32 32" fill="none" xmlns="http://www.w3.org/2000/svg">
<path d="M3.36002 9.4774H28.64M11.36 2.81073V9.29073M20.64 2.81073V8.69073M29.3334 11.9974V19.9974C29.3334 20.3041 29.3334 20.5974 29.3067 20.8907C29.2534 20.8107 29.1867 20.7307 29.12 20.6641C29.1067 20.6507 29.0934 20.6241 29.08 20.6107C28 19.4107 26.4134 18.6641 24.6667 18.6641C22.9867 18.6641 21.4534 19.3574 20.36 20.4774C19.4375 21.4291 18.856 22.6595 18.7065 23.9766C18.5569 25.2936 18.8477 26.623 19.5334 27.7574C19.8267 28.2507 20.2 28.7041 20.6267 29.0774C20.6534 29.0907 20.6667 29.1041 20.68 29.1174C20.7467 29.1841 20.8134 29.2374 20.8934 29.3041C20.6134 29.3307 20.3067 29.3307 20 29.3307H12C5.33335 29.3307 2.66669 26.6641 2.66669 19.9974V11.9974C2.66669 5.33073 5.33335 2.66406 12 2.66406H20C26.6667 2.66406 29.3334 5.33073 29.3334 11.9974Z" stroke="url(#paint0_linear_3932_27645)" stroke-width="1.5" stroke-linecap="round" stroke-linejoin="round"/>
<path d="M30.6666 24.6641C30.6666 25.1441 30.6133 25.6107 30.4933 26.0641C30.3466 26.6641 30.1066 27.2374 29.8 27.7574C29.2684 28.6441 28.5161 29.378 27.6165 29.8874C26.7168 30.3968 25.7005 30.6644 24.6666 30.6641C23.2917 30.6707 21.9592 30.1887 20.9066 29.3041H20.8933C20.8133 29.2374 20.7466 29.1841 20.68 29.1174C20.6648 29.1009 20.6467 29.0874 20.6266 29.0774C20.2 28.7041 19.8266 28.2507 19.5333 27.7574C18.8476 26.6231 18.5569 25.2936 18.7064 23.9766C18.856 22.6595 19.4374 21.4291 20.36 20.4774C21.4533 19.3574 22.9866 18.6641 24.6666 18.6641C26.4133 18.6641 28 19.4107 29.08 20.6107C29.0933 20.6241 29.1066 20.6507 29.12 20.6641C29.1866 20.7307 29.2533 20.8107 29.3066 20.8907C30.16 21.9174 30.6666 23.2374 30.6666 24.6641ZM26.9066 24.6374H22.4266H26.9066ZM24.6666 22.4507V26.9307V22.4507Z" fill="url(#paint1_linear_3932_27645)" fill-opacity="0.1"/>
<path d="M26.9066 24.6374H22.4266M24.6666 22.4507V26.9307M30.6666 24.6641C30.6666 25.1441 30.6133 25.6107 30.4933 26.0641C30.3466 26.6641 30.1066 27.2374 29.8 27.7574C29.2684 28.6441 28.5161 29.378 27.6165 29.8874C26.7168 30.3968 25.7005 30.6644 24.6666 30.6641C23.2917 30.6707 21.9592 30.1887 20.9066 29.3041H20.8933C20.8133 29.2374 20.7466 29.1841 20.68 29.1174C20.6648 29.1009 20.6467 29.0874 20.6266 29.0774C20.2 28.7041 19.8266 28.2507 19.5333 27.7574C18.8476 26.6231 18.5569 25.2936 18.7064 23.9766C18.856 22.6595 19.4374 21.4291 20.36 20.4774C21.4533 19.3574 22.9866 18.6641 24.6666 18.6641C26.4133 18.6641 28 19.4107 29.08 20.6107C29.0933 20.6241 29.1066 20.6507 29.12 20.6641C29.1866 20.7307 29.2533 20.8107 29.3066 20.8907C30.16 21.9174 30.6666 23.2374 30.6666 24.6641Z" stroke="url(#paint2_linear_3932_27645)" stroke-width="1.5" stroke-miterlimit="10" stroke-linecap="round" stroke-linejoin="round"/>
<defs>
<linearGradient id="paint0_linear_3932_27645" x1="7.4684" y1="15.9974" x2="26.1179" y2="15.9974" gradientUnits="userSpaceOnUse">
<stop stop-color="#2895FB"/>
<stop offset="1" stop-color="#2856FB"/>
</linearGradient>
<linearGradient id="paint1_linear_3932_27645" x1="20.8286" y1="24.6641" x2="29.2199" y2="24.6641" gradientUnits="userSpaceOnUse">
<stop stop-color="#2895FB"/>
<stop offset="1" stop-color="#2856FB"/>
</linearGradient>
<linearGradient id="paint2_linear_3932_27645" x1="20.8286" y1="24.6641" x2="29.2199" y2="24.6641" gradientUnits="userSpaceOnUse">
<stop stop-color="#2895FB"/>
<stop offset="1" stop-color="#2856FB"/>
</linearGradient>
</defs>
</svg>
